<?xml version="1.0" encoding="UTF-8"?>
<svg width="16px" height="16px" viewBox="0 0 16 16" version="1.1" xmlns="http://www.w3.org/2000/svg" xmlns:xlink="http://www.w3.org/1999/xlink">
    <title>domain-public</title>
    <g id="domain-public" stroke="none" stroke-width="1" fill="none" fill-rule="evenodd">
        <path d="M8,1 C11.8659932,1 15,4.13400675 15,8 C15,11.8659932 11.8659932,15 8,15 C4.13400675,15 1,11.8659932 1,8 C1,4.13400675 4.13400675,1 8,1 Z M7.47690055,2.02205777 L7.33159871,2.03681119 C6.14749028,2.16805549 5.06730192,2.643886 4.19355422,3.3617821 C4.27095787,3.39107413 4.34278284,3.43779528 4.40498756,3.5 C4.42002382,3.51503626 4.43430126,3.53081265 4.44776674,3.54727045 L5.23890329,4.51421514 C5.58863087,4.94165995 5.5256286,5.57168265 5.09818378,5.92141023 C5.05096882,5.96004065 5.00031796,5.99426957 4.94686474,6.02366884 L4.36997926,6.34095585 C4.01520943,6.53607926 3.82232561,6.93395368 3.88888889,7.33333333 C3.95376118,7.72256708 3.73885686,8.10445725 3.37247742,8.25100903 L2.75,8.5 C2.51399631,8.59440148 2.39920504,8.86224778 2.49360651,9.09825147 C2.54648787,9.23045487 2.65758232,9.3307378 2.79449123,9.36985464 L4.03847605,9.72527887 C4.56951107,9.87700316 4.87700316,10.4304889 4.72527887,10.9615239 L4.33272131,12.3354754 C4.30116531,12.4459214 4.24054518,12.5401959 4.1615351,12.6123689 C5.2007448,13.4781191 6.5394265,14 8,14 C10.7723385,14 13.1055196,12.1197438 13.7938809,9.56489372 C13.618727,9.62842467 13.4167638,9.61117589 13.25,9.5 L13.25,9.5 L13.0886881,9.39245875 C12.7359131,9.15727543 12.2731741,9.17011939 11.9339879,9.42450905 L11.9339879,9.42450905 L10.8205262,10.2596054 C10.6147914,10.4139065 10.4764105,10.6415369 10.4341323,10.8952064 L10.4341323,10.8952064 L10.083716,12.997704 C10.0311188,13.3132875 9.83069566,13.5846522 9.54453568,13.7277322 L9.54453568,13.7277322 L9.5,13.75 C9.47987912,13.7600604 9.45908456,13.7687129 9.43776606,13.7758951 C9.18319111,13.861661 8.90729034,13.7248142 8.82152445,13.4702392 L8.82152445,13.4702392 L8.3358148,12.0285297 C8.23548612,11.7307286 8.00100691,11.4974097 7.70271188,11.3985595 L7.70271188,11.3985595 L7.33823529,11.2777778 C7.32231988,11.2725037 7.30656768,11.2667492 7.29100034,11.2605223 C6.86478447,11.0900359 6.65747473,10.6063132 6.82796108,10.1800973 L6.82796108,10.1800973 L7.20638989,9.23402527 C7.3712629,8.82184275 7.82884708,8.60961569 8.25,8.75 L8.25,8.75 L8.88116484,8.96038828 C8.96007992,8.98669331 9.04196885,9.00304902 9.124934,9.0090764 L9.124934,9.0090764 L9.91990701,9.06683085 L9.91990701,9.06683085 L9.96108703,9.06832474 C10.2749641,9.06832474 10.5294118,8.81387709 10.5294118,8.5 L10.5294118,8.5 L10.5291859,8.4836131 C10.5201356,8.15540899 10.246737,7.89668365 9.91853286,7.90573389 L9.91853286,7.90573389 L8.0739692,7.95659777 C7.94374119,7.96018881 7.82379987,7.88615311 7.7686408,7.76812893 C7.69215881,7.60447995 7.76282161,7.40981533 7.92647059,7.33333333 L7.92647059,7.33333333 L8.58450082,7.0258003 C8.64493055,6.99755823 8.70028849,6.95954269 8.74834594,6.91328419 C8.98971883,6.68094664 8.99704343,6.29692845 8.76470588,6.05555556 L8.76470588,6.05555556 L8.65853334,5.94525408 C8.36872743,5.64417794 8.29669689,5.19464092 8.47792472,4.81808975 L8.47792472,4.81808975 L8.90582894,3.92899986 C8.91024081,3.91983299 8.91479231,3.91073397 8.91948184,3.90170598 C9.17406557,3.41159827 9.77775726,3.22066836 10.267865,3.47525208 L10.267865,3.47525208 L11.4302454,4.07904412 C11.609773,4.17229877 11.8133632,4.20890948 12.0141322,4.18404191 L12.0141322,4.18404191 L12.572702,4.11517782 C11.7993454,3.20577606 10.7595233,2.53000253 9.57394351,2.20856509 C9.60318139,2.30927302 9.57858894,2.42141106 9.5,2.5 L9.5,2.5 L9.43701602,2.56298398 C9.16918373,2.83081627 8.7730162,2.92433873 8.41368148,2.80456049 L8.41368148,2.80456049 L7.5,2.5 C7.39522614,2.46507538 7.32455532,2.36702485 7.32455532,2.25658351 C7.32455532,2.15199013 7.38713818,2.06201376 7.47690055,2.02205777 Z" id="globe" fill="#000000"></path>
    </g>
</svg>