<?xml version="1.0" encoding="UTF-8"?>
<svg width="256px" height="256px" viewBox="0 0 256 256" version="1.1" xmlns="http://www.w3.org/2000/svg" xmlns:xlink="http://www.w3.org/1999/xlink">
    <title>no-data</title>
    <defs>
        <circle id="path-1" cx="118" cy="118" r="118"></circle>
        <path d="M25,0 C58.5491704,12.1996983 95.2959171,43.0034766 126.152808,76.6745618 C142.667571,70.9013979 165.450135,75.6769942 194.5,91 C178.508052,99.1413553 166.447351,107.409525 158.317897,115.804509 C175.268209,140.829717 170.328031,154.561088 143.5,157 C77.1666667,204.666667 36.8333333,206.833333 22.5,163.5 C1,98.5 -14.5,33 25,0 Z M19,43.5 C9.5,49.5 4,72 9.5,92 C15.5,68 27,68 66.5,104.5 C51,72 37,54 19,43.5 Z" id="path-3"></path>
    </defs>
    <g id="no-data" stroke="none" stroke-width="1" fill="none" fill-rule="evenodd">
        <g id="icon-group" transform="translate(10.000000, 10.000000)">
            <mask id="mask-2" fill="white">
                <use xlink:href="#path-1"></use>
            </mask>
            <use id="outer" fill-opacity="0.137802017" fill="#000000" xlink:href="#path-1"></use>
            <g id="shork" mask="url(#mask-2)">
                <g transform="translate(57.500000, 61.000000)">
                    <polygon id="mouth-fill" fill="#FAADAD" points="7.5 58 12 40.5 37 40.5 81.5 117 27 101 9.5 93.5 7.5 86 5 63.5"></polygon>
                    <path d="M10,88.5 C9,86.1666667 9,84.1666667 10,82.5 C11,80.8333333 12.3333333,81 14,83 C13.6666667,79.3333333 14.5,77 16.5,76 C18.5,75 19.5,76 19.5,79 C19.1666667,73.6666667 20.6666667,71.3333333 24,72 C27.3333333,72.6666667 28.5,75 27.5,79 C29.5,75.6666667 31.8333333,74.6666667 34.5,76 C37.1666667,77.3333333 37.6666667,79.6666667 36,83 C37.3333333,79.6666667 39.1666667,78.6666667 41.5,80 C43.8333333,81.3333333 44.5,83.8333333 43.5,87.5 C46.5,86.1666667 48.6666667,86.1666667 50,87.5 C51.3333333,88.8333333 52.1666667,90.6666667 52.5,93 L10,88.5 Z" id="teef-bottom" fill="#FFFFFF"></path>
                    <path d="M56,64 L27,34.5 L5,48 L7.5,72.5 C7.83333333,73.8333333 8.33333333,73.1666667 9,70.5 C9.66666667,67.8333333 9.66666667,65.1666667 9,62.5 C9.33333333,65.8333333 10,65.8333333 11,62.5 C12,59.1666667 12.5,55.6666667 12.5,52 C11.5,57.3333333 12.8333333,59 16.5,57 C20.1666667,55 21.8333333,51.1666667 21.5,45.5 C20.5,53.1666667 21.5,57.6666667 24.5,59 C27.5,60.3333333 29.6666667,58 31,52 C29.6666667,57.3333333 31,61.3333333 35,64 C39,66.6666667 41,66.1666667 41,62.5 C40,65.8333333 40.5,68.8333333 42.5,71.5 C44.5,74.1666667 47,75.1666667 50,74.5 C49.3333333,77.1666667 49.8333333,80.3333333 51.5,84 C53.1666667,87.6666667 55.5,89 58.5,88 C57.1666667,89.3333333 57.1666667,91.3333333 58.5,94 C59.8333333,96.6666667 61.5,98 63.5,98 L56,64 Z" id="teef-top" fill="#FFFFFF"></path>
                    <g id="shork-inner" stroke-width="1" fill="none">
                        <mask id="mask-4" fill="white">
                            <use xlink:href="#path-3"></use>
                        </mask>
                        <use id="shork-shape" fill="#88939F" xlink:href="#path-3"></use>
                        <g id="gills" mask="url(#mask-4)" fill="#010101" opacity="0.199369885">
                            <g transform="translate(88.339626, 82.247928)">
                                <path d="M2.66037438,18.2520718 C12.1603744,17.2520718 21.6603744,10.2520718 24.1603744,2.2520718 C26.6603744,-5.7479282 24.6603744,9.7520718 18.1603744,14.7520718 C11.6603744,19.7520718 -6.83962562,19.2520718 2.66037438,18.2520718 Z" id="Path-4"></path>
                                <path d="M10.6603744,29.2520718 C20.1603744,28.2520718 29.6603744,21.2520718 32.1603744,13.2520718 C34.6603744,5.2520718 32.6603744,20.7520718 26.1603744,25.7520718 C19.6603744,30.7520718 1.16037438,30.2520718 10.6603744,29.2520718 Z" id="Path-4-Copy"></path>
                                <path d="M17.6603744,41.2520718 C27.1603744,40.2520718 36.6603744,33.2520718 39.1603744,25.2520718 C41.6603744,17.2520718 39.6603744,32.7520718 33.1603744,37.7520718 C26.6603744,42.7520718 8.16037438,42.2520718 17.6603744,41.2520718 Z" id="Path-4-Copy-2"></path>
                            </g>
                        </g>
                        <path d="M16.5,29 C43.5,40.5 110.5,126 124,157.5 C133,178.5 97.1666667,183.666667 16.5,173 C-8.16666667,111.333333 -8.16666667,63.3333333 16.5,29 Z" id="pat-below" fill="#CECECE" mask="url(#mask-4)"></path>
                        <g id="eye" mask="url(#mask-4)">
                            <g transform="translate(64.500000, 50.000000)">
                                <ellipse id="b" fill="#010101" transform="translate(14.000000, 14.000000) rotate(41.000000) translate(-14.000000, -14.000000) " cx="14" cy="14" rx="11" ry="8"></ellipse>
                                <circle id="f" fill="#D8D8D8" cx="18.5" cy="18" r="2"></circle>
                            </g>
                        </g>
                        <path d="M12,153.5 C6.5,103.5 9.27046742,25.9098442 34.5,17.5 C61.5,8.5 95,44 104.5,52 C118.920004,64.1431615 135.5,44 144.5,38.5 C153.5,33 165,56.5 176.5,56.5 C184.166667,56.5 151.5,23.3333333 78.5,-43 L-42,22 C-2.33333333,143 15.6666667,186.833333 12,153.5 Z" id="light" fill-opacity="0.452867201" fill="#FFFFFF" mask="url(#mask-4)"></path>
                    </g>
                </g>
            </g>
        </g>
        <g id="question-marks" opacity="0.267296927" transform="translate(20.903379, 42.000000)" fill="#010101" fill-rule="nonzero" stroke="#FFFFFF">
            <path d="M136.597648,24 L136.597648,22.8063872 C136.597648,22.3166999 136.635293,21.8958749 136.710584,21.5439122 C136.785875,21.1919494 136.913869,20.8552894 137.094567,20.5339321 C137.275266,20.2125749 137.523726,19.8988689 137.839947,19.5928144 C138.156169,19.2867598 138.555211,18.9347971 139.037073,18.5369261 C139.820098,17.924817 140.520303,17.335662 141.137689,16.7694611 C141.755074,16.2032601 142.28211,15.5988024 142.718797,14.9560878 C143.155485,14.3133733 143.494294,13.6094478 143.735225,12.8443114 C143.976155,12.079175 144.096621,11.1916168 144.096621,10.1816367 C144.096621,8.59015303 143.795457,7.21290752 143.19313,6.0499002 C142.590803,4.88689288 141.792719,3.93047239 140.79888,3.18063872 C139.80504,2.43080506 138.668147,1.87990685 137.388202,1.52794411 C136.108257,1.17598137 134.790666,1 133.43543,1 C131.989845,1 130.61955,1.20658683 129.324547,1.61976048 C128.029543,2.03293413 126.870064,2.65269461 125.846107,3.47904192 C124.822151,4.30538922 123.986422,5.34597472 123.338921,6.6007984 C122.691419,7.85562209 122.277319,9.30938124 122.096621,10.9620758 L122.096621,10.9620758 L129.279372,11.742515 C129.339605,10.6407186 129.685943,9.65369261 130.318387,8.78143713 C130.95083,7.90918164 131.899496,7.47305389 133.164383,7.47305389 C134.188339,7.47305389 134.993951,7.76380572 135.58122,8.34530938 C136.168489,8.92681304 136.462124,9.70725216 136.462124,10.6866267 C136.462124,11.3905522 136.281426,11.99501 135.920029,12.5 C135.558633,13.00499 135.121946,13.4870259 134.609968,13.9461078 L134.609968,13.9461078 L133.119208,15.3692615 C132.516881,15.8895542 131.997374,16.3945442 131.560687,16.8842315 C131.123999,17.3739188 130.755074,17.8789088 130.45391,18.3992016 C130.152747,18.9194943 129.926874,19.4933466 129.776292,20.1207585 C129.62571,20.7481703 129.55042,21.4597472 129.55042,22.255489 L129.55042,22.255489 L129.55042,24 L136.597648,24 Z M133.619698,35 C134.881236,35 135.942775,34.5634921 136.804313,33.6904762 C137.665852,32.8174603 138.096621,31.7460317 138.096621,30.4761905 C138.096621,29.8730159 137.981236,29.2936508 137.750467,28.7380952 C137.519698,28.1825397 137.196621,27.7063492 136.781236,27.3095238 C136.365852,26.9126984 135.888929,26.5952381 135.350467,26.3571429 C134.812005,26.1190476 134.235082,26 133.619698,26 C133.004313,26 132.419698,26.1190476 131.865852,26.3571429 C131.312005,26.5952381 130.82739,26.9206349 130.412005,27.3333333 C129.996621,27.7460317 129.673544,28.2301587 129.442775,28.7857143 C129.212005,29.3412698 129.096621,29.9206349 129.096621,30.5238095 C129.096621,31.1587302 129.219698,31.7460317 129.465852,32.2857143 C129.712005,32.8253968 130.042775,33.3015873 130.458159,33.7142857 C130.873544,34.1269841 131.350467,34.4444444 131.888929,34.6666667 C132.42739,34.8888889 133.004313,35 133.619698,35 Z" id="?" transform="translate(133.096621, 18.000000) rotate(4.000000) translate(-133.096621, -18.000000) "></path>
            <path d="M21.5010267,112.451561 L21.5010267,111.257948 C21.5010267,110.768261 21.5386721,110.347435 21.613963,109.995473 C21.6892539,109.64351 21.8172485,109.30685 21.9979466,108.985493 C22.1786448,108.664135 22.4271047,108.350429 22.7433265,108.044375 C23.0595483,107.73832 23.45859,107.386358 23.9404517,106.988487 C24.7234771,106.376378 25.4236824,105.787223 26.0410678,105.221022 C26.6584531,104.654821 27.1854894,104.050363 27.6221766,103.407648 C28.0588638,102.764934 28.3976728,102.061008 28.6386037,101.295872 C28.8795346,100.530736 29,99.6431773 29,98.6331973 C29,97.0417136 28.6988364,95.6644681 28.0965092,94.5014608 C27.4941821,93.3384535 26.6960986,92.382033 25.7022587,91.6321993 C24.7084189,90.8823656 23.5715264,90.3314674 22.2915811,89.9795047 C21.0116359,89.6275419 19.6940452,89.4515606 18.338809,89.4515606 C16.8932238,89.4515606 15.5229295,89.6581474 14.2279261,90.071321 C12.9329227,90.4844947 11.7734428,91.1042552 10.7494867,91.9306025 C9.72553046,92.7569498 8.88980151,93.7975353 8.24229979,95.052359 C7.59479808,96.3071827 7.18069815,97.7609418 7,99.4136364 L7,99.4136364 L14.1827515,100.194076 C14.2429843,99.0922791 14.5893224,98.1052532 15.2217659,97.2329977 C15.8542094,96.3607422 16.8028747,95.9246145 18.0677618,95.9246145 C19.091718,95.9246145 19.8973306,96.2153663 20.4845996,96.79687 C21.0718686,97.3783736 21.3655031,98.1588127 21.3655031,99.1381873 C21.3655031,99.8421128 21.1848049,100.446571 20.8234086,100.951561 C20.4620123,101.456551 20.0253251,101.938587 19.513347,102.397668 L19.513347,102.397668 L18.0225873,103.820822 C17.4202601,104.341115 16.9007529,104.846105 16.4640657,105.335792 C16.0273785,105.825479 15.6584531,106.330469 15.3572895,106.850762 C15.0561259,107.371055 14.8302533,107.944907 14.6796715,108.572319 C14.5290897,109.199731 14.4537988,109.911308 14.4537988,110.70705 L14.4537988,110.70705 L14.4537988,112.451561 L21.5010267,112.451561 Z M18.5230769,123.451561 C19.7846154,123.451561 20.8461538,123.015053 21.7076923,122.142037 C22.5692308,121.269021 23,120.197592 23,118.927751 C23,118.324576 22.8846154,117.745211 22.6538462,117.189656 C22.4230769,116.6341 22.1,116.15791 21.6846154,115.761084 C21.2692308,115.364259 20.7923077,115.046799 20.2538462,114.808703 C19.7153846,114.570608 19.1384615,114.451561 18.5230769,114.451561 C17.9076923,114.451561 17.3230769,114.570608 16.7692308,114.808703 C16.2153846,115.046799 15.7307692,115.372195 15.3153846,115.784894 C14.9,116.197592 14.5769231,116.681719 14.3461538,117.237275 C14.1153846,117.79283 14,118.372195 14,118.97537 C14,119.610291 14.1230769,120.197592 14.3692308,120.737275 C14.6153846,121.276957 14.9461538,121.753148 15.3615385,122.165846 C15.7769231,122.578545 16.2538462,122.896005 16.7923077,123.118227 C17.3307692,123.340449 17.9076923,123.451561 18.5230769,123.451561 Z" id="?-copy" transform="translate(18.000000, 106.451561) rotate(-26.000000) translate(-18.000000, -106.451561) "></path>
            <path d="M186.57506,80.3823529 L186.57506,79.0132089 C186.57506,78.4515087 186.617839,77.9687977 186.703397,77.5650757 C186.788955,77.1613538 186.934403,76.7751849 187.139742,76.4065692 C187.345081,76.0379535 187.627422,75.6781144 187.986765,75.3270518 C188.346107,74.9759892 188.799564,74.5722672 189.347134,74.1158859 C190.236936,73.4137607 191.032624,72.7379652 191.734198,72.0884995 C192.435772,71.4390337 193.034677,70.7456851 193.530912,70.0084537 C194.027148,69.2712223 194.412158,68.4637783 194.685943,67.5861219 C194.959728,66.7084654 195.096621,65.6903839 195.096621,64.5318774 C195.096621,62.706352 194.754389,61.1265704 194.069927,59.7925326 C193.385464,58.4584948 192.478551,57.3614242 191.349188,56.5013209 C190.219824,55.6412176 188.927901,55.0093049 187.473418,54.605583 C186.018934,54.201861 184.521672,54 182.981631,54 C181.338921,54 179.781768,54.2369672 178.310173,54.7109017 C176.838578,55.1848362 175.520988,55.8957379 174.357401,56.8436069 C173.193815,57.7914759 172.244123,58.9850886 171.508325,60.4244452 C170.772528,61.8638018 170.30196,63.5313491 170.096621,65.427087 L170.096621,65.427087 L178.258838,66.3222966 C178.327285,65.0584713 178.720851,63.9262945 179.439537,62.9257661 C180.158222,61.9252378 181.236251,61.4249736 182.673623,61.4249736 C183.837209,61.4249736 184.752678,61.758483 185.420029,62.4255019 C186.087381,63.0925208 186.421056,63.9877304 186.421056,65.1111307 C186.421056,65.9185746 186.215717,66.6119232 185.80504,67.1911765 C185.394362,67.7704297 184.898127,68.3233533 184.316333,68.8499472 L184.316333,68.8499472 L182.622288,70.4823882 C181.937825,71.0791946 181.347476,71.6584478 180.851241,72.2201479 C180.355005,72.7818481 179.935772,73.3611013 179.593541,73.9579077 C179.251309,74.5547141 178.994636,75.2129564 178.82352,75.9326347 C178.652405,76.652313 178.566847,77.4685335 178.566847,78.3812962 L178.566847,78.3812962 L178.566847,80.3823529 L186.57506,80.3823529 Z M183.191026,93 C184.624593,93 185.830887,92.4992997 186.809908,91.4978992 C187.788929,90.4964986 188.278439,89.267507 188.278439,87.8109244 C188.278439,87.1190476 188.14732,86.4544818 187.885082,85.8172269 C187.622845,85.179972 187.255712,84.6337535 186.783684,84.1785714 C186.311656,83.7233894 185.769698,83.3592437 185.15781,83.0861345 C184.545922,82.8130252 183.890327,82.6764706 183.191026,82.6764706 C182.491726,82.6764706 181.82739,82.8130252 181.198019,83.0861345 C180.568649,83.3592437 180.017949,83.732493 179.545922,84.2058824 C179.073894,84.6792717 178.706761,85.2345938 178.444523,85.8718487 C178.182285,86.5091036 178.051166,87.1736695 178.051166,87.8655462 C178.051166,88.5938375 178.191026,89.267507 178.470747,89.8865546 C178.750467,90.5056022 179.126341,91.0518207 179.598369,91.5252101 C180.070397,91.9985994 180.612355,92.3627451 181.224243,92.6176471 C181.836131,92.872549 182.491726,93 183.191026,93 Z" id="?-copy-4" transform="translate(182.596621, 73.500000) rotate(16.000000) translate(-182.596621, -73.500000) "></path>
            <path d="M31.3245469,43.2058824 L31.3245469,42.4686509 C31.3245469,42.166197 31.3485031,41.9062757 31.3964155,41.6888869 C31.4443279,41.4714982 31.5257789,41.2635611 31.6407687,41.0650757 C31.7557584,40.8665903 31.9138693,40.6728308 32.1151013,40.4837971 C32.3163333,40.2947634 32.570269,40.0773747 32.8769083,39.8316309 C33.3751971,39.4535635 33.8207823,39.0896736 34.2136639,38.7399613 C34.6065455,38.3902489 34.9419322,38.0169074 35.2198241,37.6199366 C35.497716,37.2229658 35.7133217,36.7881883 35.8666413,36.3156041 C36.019961,35.8430198 36.0966208,35.2948221 36.0966208,34.6710109 C36.0966208,33.6880357 35.9049713,32.8373841 35.5216722,32.119056 C35.138373,31.400728 34.6305017,30.8099977 33.9980582,30.3468651 C33.3656147,29.8837325 32.6421376,29.5434719 31.827627,29.3260831 C31.0131164,29.1086944 30.1746496,29 29.3122266,29 C28.3923087,29 27.5203032,29.1275977 26.6962101,29.3827932 C25.8721171,29.6379887 25.1342663,30.020782 24.4826578,30.5311729 C23.8310493,31.0415639 23.2992218,31.6842785 22.8871752,32.4593167 C22.4751287,33.2343548 22.2116105,34.1322649 22.0966208,35.1530468 L22.0966208,35.1530468 L26.6674627,35.6350828 C26.7057926,34.9545615 26.9261896,34.3449278 27.3286537,33.8061818 C27.7311177,33.2674357 28.3348138,32.9980627 29.139742,32.9980627 C29.7913505,32.9980627 30.304013,33.1776447 30.6777296,33.5368087 C31.0514463,33.8959728 31.2383046,34.3780087 31.2383046,34.9829165 C31.2383046,35.417694 31.1233149,35.7910356 30.8933354,36.1029412 C30.6633559,36.4148468 30.3854641,36.7125749 30.0596598,36.9961254 L30.0596598,36.9961254 L29.1109945,37.8751321 C28.7276954,38.1964894 28.3970999,38.508395 28.1192081,38.8108489 C27.8413162,39.1133028 27.6065455,39.4252084 27.414896,39.7465657 C27.2232464,40.067923 27.0795092,40.4223612 26.9836845,40.8098802 C26.8878597,41.1973993 26.8399473,41.6369027 26.8399473,42.1283903 L26.8399473,42.1283903 L26.8399473,43.2058824 L31.3245469,43.2058824 Z M29.4294879,50 C30.2322852,50 30.9078096,49.7303922 31.4560614,49.1911765 C32.0043131,48.6519608 32.278439,47.9901961 32.278439,47.2058824 C32.278439,46.8333333 32.2050124,46.4754902 32.0581593,46.1323529 C31.9113061,45.7892157 31.7057117,45.495098 31.4413761,45.25 C31.1770404,45.004902 30.8735439,44.8088235 30.5308866,44.6617647 C30.1882292,44.5147059 29.8210963,44.4411765 29.4294879,44.4411765 C29.0378796,44.4411765 28.6658516,44.5147059 28.313404,44.6617647 C27.9609565,44.8088235 27.6525649,45.0098039 27.3882292,45.2647059 C27.1238935,45.5196078 26.9182991,45.8186275 26.771446,46.1617647 C26.6245928,46.504902 26.5511663,46.8627451 26.5511663,47.2352941 C26.5511663,47.627451 26.6294879,47.9901961 26.7861313,48.3235294 C26.9427747,48.6568627 27.1532642,48.9509804 27.4175998,49.2058824 C27.6819355,49.4607843 27.985432,49.6568627 28.3280893,49.7941176 C28.6707467,49.9313725 29.0378796,50 29.4294879,50 Z" id="?-copy-2" transform="translate(29.096621, 39.500000) rotate(-3.000000) translate(-29.096621, -39.500000) "></path>
            <path d="M53.0366043,153.344573 L53.0366043,152.607342 C53.0366043,152.304888 53.0605605,152.044967 53.1084729,151.827578 C53.1563853,151.610189 53.2378364,151.402252 53.3528261,151.203767 C53.4678158,151.005281 53.6259267,150.811522 53.8271587,150.622488 C54.0283908,150.433454 54.2823264,150.216065 54.5889657,149.970322 C55.0872546,149.592254 55.5328398,149.228364 55.9257214,148.878652 C56.318603,148.52894 56.6539897,148.155598 56.9318815,147.758627 C57.2097734,147.361657 57.4253791,146.926879 57.5786988,146.454295 C57.7320184,145.981711 57.8086782,145.433513 57.8086782,144.809702 C57.8086782,143.826727 57.6170287,142.976075 57.2337296,142.257747 C56.8504305,141.539419 56.3425592,140.948688 55.7101156,140.485556 C55.0776721,140.022423 54.354195,139.682163 53.5396844,139.464774 C52.7251738,139.247385 51.886707,139.138691 51.024284,139.138691 C50.1043661,139.138691 49.2323607,139.266289 48.4082676,139.521484 C47.5841745,139.77668 46.8463237,140.159473 46.1947152,140.669864 C45.5431067,141.180255 45.0112792,141.822969 44.5992327,142.598007 C44.1871861,143.373046 43.923668,144.270956 43.8086782,145.291738 L43.8086782,145.291738 L48.3795201,145.773774 C48.41785,145.093252 48.638247,144.483619 49.0407111,143.944873 C49.4431752,143.406127 50.0468713,143.136754 50.8517994,143.136754 C51.5034079,143.136754 52.0160704,143.316336 52.3897871,143.6755 C52.7635037,144.034664 52.950362,144.5167 52.950362,145.121607 C52.950362,145.556385 52.8353723,145.929726 52.6053928,146.241632 C52.3754134,146.553538 52.0975215,146.851266 51.7717173,147.134816 L51.7717173,147.134816 L50.823052,148.013823 C50.4397529,148.33518 50.1091574,148.647086 49.8312655,148.94954 C49.5533737,149.251994 49.318603,149.563899 49.1269534,149.885257 C48.9353038,150.206614 48.7915667,150.561052 48.6957419,150.948571 C48.5999171,151.33609 48.5520047,151.775593 48.5520047,152.267081 L48.5520047,152.267081 L48.5520047,153.344573 L53.0366043,153.344573 Z M51.1415454,160.138691 C51.9443426,160.138691 52.6198671,159.869083 53.1681188,159.329867 C53.7163706,158.790652 53.9904964,158.128887 53.9904964,157.344573 C53.9904964,156.972024 53.9170699,156.614181 53.7702167,156.271044 C53.6233636,155.927907 53.4177692,155.633789 53.1534335,155.388691 C52.8890978,155.143593 52.5856013,154.947514 52.242944,154.800456 C51.9002866,154.653397 51.5331538,154.579867 51.1415454,154.579867 C50.749937,154.579867 50.377909,154.653397 50.0254615,154.800456 C49.6730139,154.947514 49.3646223,155.148495 49.1002866,155.403397 C48.835951,155.658299 48.6303566,155.957318 48.4835034,156.300456 C48.3366503,156.643593 48.2632237,157.001436 48.2632237,157.373985 C48.2632237,157.766142 48.3415454,158.128887 48.4981887,158.46222 C48.6548321,158.795554 48.8653216,159.089671 49.1296573,159.344573 C49.3939929,159.599475 49.6974894,159.795554 50.0401468,159.932808 C50.3828041,160.070063 50.749937,160.138691 51.1415454,160.138691 Z" id="?-copy-3" transform="translate(50.808678, 149.638691) rotate(47.000000) translate(-50.808678, -149.638691) "></path>
        </g>
    </g>
</svg>