<?xml version="1.0" encoding="UTF-8"?>
<svg width="16px" height="16px" viewBox="0 0 16 16" version="1.1" xmlns="http://www.w3.org/2000/svg" xmlns:xlink="http://www.w3.org/1999/xlink">
    <title>refresh</title>
    <g id="refresh" stroke="none" stroke-width="1" fill="none" fill-rule="evenodd">
        <path d="M13.5035534,6.35 L15.8571068,8.70355339 L15.15,9.41066017 L13.9946773,8.25504275 C13.8610521,11.4504532 11.2282653,14 8,14 C6.82362507,14 5.72632149,13.6614553 4.80020299,13.0764795 L5.40403827,12.2741386 C6.16073561,12.7347149 7.04938748,13 8,13 C10.668475,13 12.8487079,10.9095872 12.9924567,8.27700379 L11.8571068,9.41066017 L11.15,8.70355339 L13.5035534,6.35 Z M8,2 C9.17637493,2 10.2736785,2.33854473 11.199797,2.92352048 L10.5959617,3.72586139 C9.83926439,3.26528509 8.95061252,3 8,3 C5.30856625,3 3.11381209,5.1265381 3.00428625,7.79106556 L4.15,6.64644661 L4.85710678,7.35355339 L2.50355339,9.70710678 L0.15,7.35355339 L0.857106781,6.64644661 L2.00350444,7.79298183 C2.11261013,4.57513009 4.75557813,2 8,2 Z" id="Combined-Shape" fill="#000000" transform="translate(8.003553, 8.000000) rotate(30.000000) translate(-8.003553, -8.000000) "></path>
    </g>
</svg>