<?xml version="1.0" encoding="UTF-8"?>
<svg width="16px" height="16px" viewBox="0 0 16 16" version="1.1" xmlns="http://www.w3.org/2000/svg" xmlns:xlink="http://www.w3.org/1999/xlink">
    <title>search</title>
    <g id="search" stroke="none" stroke-width="1" fill="none" fill-rule="evenodd">
        <path d="M6,1 C8.76142375,1 11,3.23857625 11,6 C11,7.20806503 10.5715636,8.31606337 9.85834555,9.18034013 L10.3548544,9.42742722 C10.4509894,9.47549468 10.5387463,9.53874632 10.6147476,9.61474763 L14,13 C14.2761424,13.2761424 14.2761424,13.7238576 14,14 C13.7238576,14.2761424 13.2761424,14.2761424 13,14 L9.61474763,10.6147476 C9.53874632,10.5387463 9.47549468,10.4509894 9.42742722,10.3548544 L9.18034013,9.85834555 C8.31606337,10.5715636 7.20806503,11 6,11 C3.23857625,11 1,8.76142375 1,6 C1,3.23857625 3.23857625,1 6,1 Z M6,2 C3.790861,2 2,3.790861 2,6 C2,8.209139 3.790861,10 6,10 C8.209139,10 10,8.209139 10,6 C10,3.790861 8.209139,2 6,2 Z" id="Combined-Shape" fill="#000000"></path>
    </g>
</svg>