<svg width="128" height="128" xmlns="http://www.w3.org/2000/svg"><g fill="none" fill-rule="evenodd"><path d="M16 8h84.686a8 8 0 015.657 13.657l-84.686 84.686A8 8 0 018 100.686V16a8 8 0 018-8z" fill="#1883FF"/><circle fill="#469BFF" cx="64" cy="64" r="56"/><path d="M82.793 21.86l18.71 69.821a8 8 0 01-9.798 9.798L21.881 82.77a8 8 0 01-3.586-13.384L69.41 18.273a8 8 0 0113.384 3.586z" fill="#57CEFF"/><path d="M64 8c15.464 0 29.464 6.268 39.598 16.402l-79.196 79.196C14.268 93.464 8 79.464 8 64 8 33.072 33.072 8 64 8z" fill="#2DC2FF"/><path d="M80.723 18.273a8 8 0 012.07 3.586l4.934 18.414-47.431 47.43L21.88 82.77a8 8 0 01-3.586-13.384L69.41 18.273a8 8 0 0111.314 0z" fill="#40E1FF"/><path d="M67.865 49.407l11.48 11.452a8 8 0 01-3.58 13.39L60.07 78.456a8 8 0 01-9.796-9.807L54.49 52.99a8 8 0 0113.375-3.583z" fill="#FFF"/></g></svg>